<?xml version="1.0" standalone="no"?>
<!DOCTYPE svg PUBLIC "-//W3C//DTD SVG 20010904//EN"
 "http://www.w3.org/TR/2001/REC-SVG-20010904/DTD/svg10.dtd">
<svg version="1.0" xmlns="http://www.w3.org/2000/svg"
 width="250.000000pt" height="250.000000pt" viewBox="0 0 250.000000 250.000000"
 preserveAspectRatio="xMidYMid meet">
<metadata>
Created by potrace 1.14, written by Peter Selinger 2001-2017
</metadata>
<g transform="translate(0.000000,250.000000) scale(0.100000,-0.100000)"
fill="#000000" stroke="none">
<path d="M987 2408 c-19 -15 -35 -98 -19 -98 7 0 19 11 28 25 23 35 34 22 34
-40 0 -53 -1 -55 -42 -82 -24 -16 -92 -53 -153 -83 -98 -49 -114 -61 -148
-110 -44 -63 -47 -103 -8 -108 26 -4 26 -3 -3 -107 -25 -87 -40 -445 -27 -596
15 -163 14 -292 -1 -287 -7 3 -58 58 -113 124 -116 136 -138 147 -143 72 -4
-63 29 -196 82 -332 24 -61 48 -127 54 -146 23 -73 51 -250 62 -385 11 -151
28 -255 40 -255 5 0 6 8 3 19 -3 14 2 20 22 25 15 4 29 5 31 3 8 -7 -8 -37
-16 -32 -5 3 -11 1 -15 -5 -4 -6 6 -10 23 -10 26 0 29 3 24 28 -3 21 -2 25 8
15 7 -6 18 -9 25 -6 7 2 16 -5 20 -16 6 -19 14 -21 75 -21 65 0 69 1 65 21 -2
12 -11 26 -20 33 -9 6 -21 21 -28 32 -40 70 -61 111 -63 123 -1 7 -12 23 -23
35 -12 12 -21 30 -21 39 0 9 -5 17 -10 17 -6 0 -10 6 -9 13 1 6 0 19 -4 27 -8
22 -45 208 -52 265 -6 52 -24 149 -32 175 -2 8 -4 16 -5 17 -6 47 -43 153 -63
181 -15 20 10 -2 55 -51 45 -48 85 -87 90 -87 4 0 10 14 12 30 3 16 2 30 -2
30 -13 0 -18 169 -8 282 4 46 2 69 -6 72 -7 3 -7 5 2 5 6 1 12 9 11 19 0 10
-3 12 -6 5 -2 -7 -9 -13 -14 -13 -15 0 -10 26 7 41 12 10 14 27 10 83 -3 39
-5 72 -6 74 -1 10 -19 -2 -23 -15 -3 -10 -5 -1 -6 20 -1 22 4 37 11 37 6 0 4
6 -7 13 -16 13 -17 25 -12 133 3 77 12 142 25 184 29 92 33 123 22 140 -9 13
-13 12 -30 -9 -29 -34 -25 -10 8 45 23 40 38 52 110 85 46 22 86 39 88 39 2 0
-8 -16 -21 -36 -34 -50 -91 -231 -105 -331 -18 -132 -15 -420 5 -488 36 -124
223 -245 378 -245 82 0 347 36 383 52 93 40 144 127 234 398 53 158 79 302 80
445 1 87 7 93 66 59 71 -41 149 -99 172 -129 22 -28 38 -97 27 -115 -5 -8 -12
-4 -22 9 -8 12 -20 21 -27 21 -16 0 -61 -48 -53 -56 4 -4 0 -12 -8 -18 -9 -6
-22 -47 -31 -91 -8 -44 -19 -93 -24 -110 -9 -30 -9 -30 -7 7 2 20 0 35 -4 32
-4 -2 -10 2 -12 8 -4 10 -6 10 -6 1 -1 -7 -7 -13 -15 -13 -8 0 -21 -14 -30
-30 -11 -23 -11 -30 -2 -30 7 0 13 -7 13 -15 0 -18 -14 -20 -19 -3 -2 6 -9 8
-16 4 -8 -5 -6 -13 8 -28 26 -28 26 -64 -1 -79 -17 -9 -20 -8 -14 2 5 7 4 10
-3 5 -6 -3 -9 -22 -7 -40 3 -22 -1 -38 -10 -46 -12 -10 -15 -10 -15 3 0 8 -8
21 -17 28 -9 8 -14 9 -10 2 4 -6 2 -17 -5 -25 -15 -15 -33 -50 -48 -92 -9 -23
-7 -33 7 -49 13 -14 13 -18 3 -12 -12 7 -13 6 -3 -6 7 -8 8 -20 4 -28 -7 -11
-11 -9 -19 5 -6 10 -14 15 -18 11 -5 -4 -3 -17 4 -27 10 -16 10 -20 -2 -20 -8
0 -17 6 -20 13 -3 6 -3 0 0 -15 3 -15 -1 -41 -11 -61 -10 -21 -14 -50 -12 -73
3 -22 -1 -71 -8 -109 -8 -41 -10 -76 -5 -85 6 -10 3 -32 -5 -56 -23 -65 -18
-109 20 -183 27 -51 35 -80 35 -119 0 -28 5 -63 12 -77 8 -19 9 -28 0 -37 -8
-8 -12 -3 -17 18 -14 67 -21 88 -30 90 -19 6 -50 -79 -50 -136 -1 -57 -14 -87
-70 -164 -54 -73 -54 -76 20 -76 61 0 65 2 65 23 1 12 7 33 14 45 l13 24 33
-44 c21 -26 26 -36 11 -23 -19 16 -24 17 -31 5 -17 -26 -11 -30 34 -28 l45 1
-39 46 c-54 65 -72 106 -78 176 -7 88 28 147 42 71 8 -41 34 -55 54 -29 27 35
8 131 -44 230 -39 74 -45 94 -41 128 3 23 44 115 95 215 126 246 187 427 238
704 12 70 25 130 27 133 2 2 23 0 45 -5 51 -12 72 7 79 71 12 102 -47 169
-255 291 -72 43 -134 81 -137 85 -5 9 23 51 34 51 5 0 11 -9 14 -20 3 -11 10
-20 15 -20 10 0 13 8 28 61 3 9 -3 24 -11 33 -28 27 -62 19 -111 -26 -44 -40
-47 -41 -77 -29 -118 48 -284 81 -432 87 l-100 4 -6 57 c-5 45 -13 62 -33 80
-31 26 -45 28 -69 11z m94 -138 c2 -25 -1 -52 -6 -59 -6 -10 -4 -12 6 -6 11 6
11 5 2 -5 -6 -7 -19 -10 -28 -6 -14 5 -16 15 -10 69 4 34 10 66 13 71 8 15 20
-17 23 -64z m691 -61 c2 -7 -9 -24 -24 -40 -15 -15 -28 -37 -28 -48 0 -24 -8
-26 -34 -6 -18 14 -18 16 -2 40 37 57 79 82 88 54z m-328 -132 c80 -37 136
-85 164 -139 25 -52 29 -114 7 -144 -24 -35 -112 -67 -195 -71 l-75 -5 43 22
c50 26 91 75 102 124 l8 34 -52 7 c-109 13 -128 17 -119 26 5 5 44 13 87 17
l77 7 -23 35 c-65 96 -189 116 -284 44 -41 -30 -64 -81 -64 -139 0 -57 18 -94
66 -134 l37 -30 -63 15 c-179 42 -242 140 -161 251 59 82 143 114 286 110 84
-2 109 -7 159 -30z m-777 -710 c-2 -23 -3 -1 -3 48 0 50 1 68 3 42 2 -26 2
-67 0 -90z m486 102 c-131 -50 -146 -197 -28 -270 37 -23 24 -24 -68 -3 -122
28 -166 63 -153 125 20 100 121 165 261 167 l40 1 -52 -20z m178 -19 c128 -66
186 -185 121 -250 -37 -37 -80 -44 -200 -34 -91 7 -94 8 -45 14 54 6 94 28
124 71 29 39 28 64 -1 67 -14 2 -49 8 -79 13 -71 14 -50 29 42 29 l68 0 -15
29 c-9 16 -29 40 -46 55 -38 31 -24 34 31 6z m-664 -197 c-3 -10 -5 -2 -5 17
0 19 2 27 5 18 2 -10 2 -26 0 -35z m1014 -486 c-10 -9 -11 -8 -5 6 3 10 9 15
12 12 3 -3 0 -11 -7 -18z"/>
<path d="M680 1674 c0 -21 4 -33 10 -29 6 3 10 19 10 36 0 16 -4 29 -10 29 -5
0 -10 -16 -10 -36z"/>
<path d="M717 1703 c-4 -3 -7 -11 -7 -17 0 -6 5 -5 12 2 6 6 9 14 7 17 -3 3
-9 2 -12 -2z"/>
<path d="M1958 1670 c2 -16 6 -30 8 -30 2 0 4 14 4 30 0 17 -4 30 -8 30 -5 0
-7 -13 -4 -30z"/>
<path d="M693 1633 c-7 -3 -13 -12 -13 -21 0 -15 2 -15 17 1 18 18 16 27 -4
20z"/>
<path d="M1930 1596 c0 -14 5 -26 10 -26 6 0 10 9 10 19 0 11 -4 23 -10 26 -6
4 -10 -5 -10 -19z"/>
<path d="M680 1575 c0 -8 5 -15 10 -15 6 0 10 7 10 15 0 8 -4 15 -10 15 -5 0
-10 -7 -10 -15z"/>
<path d="M1860 1580 c0 -5 5 -10 11 -10 5 0 7 5 4 10 -3 6 -8 10 -11 10 -2 0
-4 -4 -4 -10z"/>
<path d="M705 1550 c-3 -5 -1 -10 4 -10 6 0 11 5 11 10 0 6 -2 10 -4 10 -3 0
-8 -4 -11 -10z"/>
<path d="M1840 1535 c0 -8 5 -15 10 -15 6 0 10 7 10 15 0 8 -4 15 -10 15 -5 0
-10 -7 -10 -15z"/>
<path d="M1846 1404 c-8 -22 1 -31 16 -16 9 9 9 15 1 23 -7 7 -12 5 -17 -7z"/>
<path d="M1800 1398 c0 -9 5 -20 11 -23 17 -11 18 -2 3 19 -12 17 -14 17 -14
4z"/>
<path d="M831 1022 c-8 -15 -7 -44 5 -109 9 -48 17 -97 19 -108 4 -30 31 -88
65 -142 28 -44 92 -93 123 -93 6 0 23 -6 37 -13 14 -7 34 -16 44 -20 17 -7 17
-5 5 9 -7 9 4 4 26 -10 28 -19 49 -26 75 -24 31 3 38 9 60 53 14 28 31 50 38
51 28 2 31 5 26 19 -4 8 -2 15 3 15 5 0 20 48 33 106 18 80 26 101 31 83 6
-22 7 -21 8 7 1 44 -26 93 -56 100 -14 4 -96 4 -182 1 -201 -9 -212 -6 -328
79 -20 14 -22 14 -32 -4z m505 -96 c1 0 -1 -21 -5 -46 -6 -44 -7 -45 -41 -42
-19 2 -41 8 -47 14 -14 11 -18 70 -6 82 5 5 93 -2 99 -8z"/>
<path d="M1017 401 c-26 -32 -43 -101 -52 -221 -3 -41 -8 -99 -11 -127 l-5
-53 256 0 256 0 -6 38 c-36 212 -114 311 -294 373 -79 28 -114 25 -144 -10z"/>
</g>
</svg>
